<svg xmlns="http://www.w3.org/2000/svg" viewBox="0 0 1200 820" role="img" aria-labelledby="title desc">
  <title id="title">Mortgage advisor reviewing home financing options</title>
  <desc id="desc">A calm editorial-style illustration of mortgage planning paperwork, a laptop, and a home model on a kitchen table.</desc>
  <defs>
    <linearGradient id="wall" x1="0" y1="0" x2="1" y2="1">
      <stop offset="0" stop-color="#f7efe4"/>
      <stop offset="0.56" stop-color="#dfece8"/>
      <stop offset="1" stop-color="#f5f0e6"/>
    </linearGradient>
    <linearGradient id="table" x1="0" y1="0" x2="1" y2="1">
      <stop offset="0" stop-color="#d9b98b"/>
      <stop offset="1" stop-color="#b98758"/>
    </linearGradient>
    <filter id="softShadow" x="-20%" y="-20%" width="140%" height="140%">
      <feDropShadow dx="0" dy="18" stdDeviation="18" flood-color="#17324d" flood-opacity="0.18"/>
    </filter>
  </defs>
  <rect width="1200" height="820" fill="url(#wall)"/>
  <rect x="0" y="560" width="1200" height="260" fill="url(#table)"/>
  <rect x="86" y="70" width="354" height="306" rx="6" fill="#ffffff" opacity="0.74"/>
  <rect x="118" y="104" width="132" height="100" fill="#d9e9e4"/>
  <rect x="268" y="104" width="132" height="100" fill="#d9e9e4"/>
  <rect x="118" y="226" width="132" height="100" fill="#d9e9e4"/>
  <rect x="268" y="226" width="132" height="100" fill="#d9e9e4"/>
  <path d="M621 214h242l76 78v216H545V292l76-78z" fill="#fffaf0" filter="url(#softShadow)"/>
  <path d="M508 300l158-154h151l159 154-42 43-195-187-191 187-40-43z" fill="#246b68"/>
  <rect x="645" y="356" width="68" height="152" fill="#17324d"/>
  <rect x="755" y="348" width="78" height="72" fill="#f1c36b"/>
  <rect x="914" y="494" width="210" height="170" rx="6" fill="#17324d" filter="url(#softShadow)"/>
  <rect x="936" y="520" width="166" height="96" rx="4" fill="#d7ebe8"/>
  <rect x="876" y="662" width="274" height="18" rx="9" fill="#24415f"/>
  <rect x="180" y="500" width="360" height="214" rx="8" fill="#ffffff" filter="url(#softShadow)"/>
  <rect x="220" y="536" width="154" height="16" rx="8" fill="#17324d"/>
  <rect x="220" y="574" width="260" height="10" rx="5" fill="#9db8b4"/>
  <rect x="220" y="606" width="228" height="10" rx="5" fill="#9db8b4"/>
  <rect x="220" y="638" width="180" height="10" rx="5" fill="#9db8b4"/>
  <circle cx="473" cy="661" r="34" fill="#f1c36b"/>
  <path d="M450 662l17 17 34-41" fill="none" stroke="#17324d" stroke-width="10" stroke-linecap="round" stroke-linejoin="round"/>
  <rect x="550" y="600" width="248" height="140" rx="8" fill="#edf4f2" filter="url(#softShadow)"/>
  <rect x="586" y="626" width="80" height="12" rx="6" fill="#246b68"/>
  <rect x="586" y="656" width="174" height="10" rx="5" fill="#8aa9a5"/>
  <rect x="586" y="684" width="132" height="10" rx="5" fill="#8aa9a5"/>
  <path d="M744 710c-48-8-82-24-102-48" fill="none" stroke="#f1c36b" stroke-width="12" stroke-linecap="round"/>
</svg>
